<?xml version="1.0" encoding="UTF-8"?>
<svg id="Layer_2" data-name="Layer 2" xmlns="http://www.w3.org/2000/svg" viewBox="0 0 915.62 223.46">
  <defs>
    <style>
      .cls-1 {
        fill: #053354;
      }
    </style>
  </defs>
  <g id="Layer_1-2" data-name="Layer 1">
    <g>
      <g>
        <path class="cls-1" d="M435.13,4.59h31.81l23.66,76.83V4.59h16.42V84.98h-31.92l-23.54-76.83V84.98h-16.42V4.59Z"/>
        <path class="cls-1" d="M539.97,50.07l9.65-.92c3.67-.23,5.51-1.61,5.51-4.71,0-4.36-4.13-7.12-9.65-7.12-6.2,0-10.22,3.33-11.25,8.96l-15.39-3.45c1.61-10.22,11.37-18.26,26.53-18.26,14.36,0,25.26,7.35,25.26,22.97v37.44h-15.5v-14.7c-3.33,10.68-10.11,15.85-20.44,15.85-9.3,0-17.57-6.55-17.57-17,0-13.55,11.83-17.92,22.85-19.06Zm.23,23.77c8.15,0,14.93-6.54,14.93-13.67v-1.49c-1.03,.92-2.64,1.38-5.28,1.72l-9.99,1.15c-4.48,.57-7.24,2.87-7.24,6.32s2.87,5.97,7.58,5.97Z"/>
        <path class="cls-1" d="M574.66,25.72h16.77l15.96,54.66,15.85-54.66h15.73l-19.06,59.26h-26.18l-19.06-59.26Z"/>
        <path class="cls-1" d="M653.44,0c5.05,0,9.3,4.13,9.3,9.3s-4.25,9.3-9.3,9.3-9.42-4.25-9.42-9.3,4.25-9.3,9.42-9.3Zm-7.81,25.72h15.5v59.26h-15.5V25.72Z"/>
        <path class="cls-1" d="M697.88,24.58c10.45,0,18.37,7,21.82,17.34V25.72h15.5v52.6c0,17.46-13.67,30.78-31.7,30.78-12.52,0-22.51-6.55-27.56-15.96l13.89-7.35c2.76,5.63,7.35,9.19,13.67,9.19,8.96,0,16.19-6.89,16.19-16.65v-11.37c-3.45,10.33-11.37,17.34-21.82,17.34-14.58,0-25.49-12.98-25.49-29.86s10.91-29.86,25.49-29.86Zm6.09,45.59c9.07,0,15.73-6.78,15.73-15.73s-6.66-15.62-15.73-15.62-15.5,6.66-15.5,15.62,6.78,15.73,15.5,15.73Z"/>
        <path class="cls-1" d="M768.16,50.07l9.65-.92c3.67-.23,5.51-1.61,5.51-4.71,0-4.36-4.13-7.12-9.65-7.12-6.2,0-10.22,3.33-11.25,8.96l-15.39-3.45c1.61-10.22,11.37-18.26,26.53-18.26,14.36,0,25.26,7.35,25.26,22.97v37.44h-15.5v-14.7c-3.33,10.68-10.11,15.85-20.44,15.85-9.3,0-17.57-6.55-17.57-17,0-13.55,11.83-17.92,22.85-19.06Zm.23,23.77c8.15,0,14.93-6.54,14.93-13.67v-1.49c-1.03,.92-2.64,1.38-5.28,1.72l-9.99,1.15c-4.48,.57-7.24,2.87-7.24,6.32s2.87,5.97,7.58,5.97Z"/>
        <path class="cls-1" d="M804.11,25.72h11.94V8.27l15.5-4.82V25.72h15.39v13.67h-15.39v23.54c0,5.74,2.64,8.38,8.38,8.38h7v13.67h-7c-16.31,0-23.89-7.58-23.89-22.97v-22.62h-11.94v-13.67Z"/>
        <path class="cls-1" d="M884.61,24.58c19.87,0,33.76,16.54,30.55,36.29h-45.71c2.07,7.01,8.04,11.94,16.19,11.94,6.43,0,11.83-3.1,14.7-8.27l12.75,5.74c-5.17,9.3-15.04,15.85-27.91,15.85-18.03,0-31.7-13.32-31.7-30.78s13.44-30.78,31.12-30.78Zm15.04,24.46c-2.07-6.66-7.69-11.14-15.04-11.14s-12.75,4.48-14.93,11.14h29.97Z"/>
      </g>
      <g>
        <path class="cls-1" d="M267.48,199.1c-26.62-.26-75.81-.55-78.88-.6l-58.69-117.6-.78-1.55v119.15H0c9.51,0,29.58-29.45,35.49-36.93,11.06-14.02,20.04-29.78,26.76-46.32,13.04-32.05,19-70.85,3.23-103.08-1.15-2.36-2.22-4.27-2.96-5.53,2.92-1.04,15.26-1.68,29.37-1.92,21.4-.36,70.04,.71,72.67,.94,4.81,27.42,10.15,55.09,23.19,79.82,20.11,38.13,43.13,72.8,71.92,104.87,2.6,2.92,5.22,5.82,7.82,8.75Z"/>
        <path class="cls-1" d="M350.2,136.62c-17.88-19.72-37.51-26.41-63.58-18.94,11.43-3.27,25.95-24.15,30.43-34.41,7.14-16.38,5.8-35.24-.18-52.16-17.44-49.35-117.75-25.14-117.75-25.14,0,0,.71,12.69,.69,18.91-.03,8.59,.61,17.54,1.76,26.38,7.68,58.8,38.94,98.25,75.71,139.62,3.95,4.44,7.95,8.01,8.31,8.23,26.24,.44,136.48-.34,140.53,1.86-30.27-16.55-52.7-38.71-75.92-64.35Zm-89.87-54.39c-2.96-11.67-15.54-24.26-27.22-27.22,11.67-2.96,24.26-15.54,27.22-27.22,2.97,11.67,15.54,24.26,27.22,27.22-11.67,2.96-24.25,15.54-27.22,27.22Z"/>
      </g>
      <g>
        <path class="cls-1" d="M441.9,120.11h34.57c17.23,0,28.37,11.02,28.37,25.84,0,11.48-6.66,20.79-17.8,24.35l19.98,30.2h-19.52l-18.83-28.59h-10.34v28.59h-16.42V120.11Zm34.57,36.75c6.89,0,11.48-4.71,11.48-11.02s-4.59-11.14-11.48-11.14h-18.14v22.16h18.14Z"/>
        <path class="cls-1" d="M542.04,140.09c19.87,0,33.76,16.54,30.55,36.29h-45.71c2.07,7.01,8.04,11.94,16.19,11.94,6.43,0,11.83-3.1,14.7-8.27l12.75,5.74c-5.17,9.3-15.04,15.85-27.91,15.85-18.03,0-31.7-13.32-31.7-30.78s13.44-30.78,31.12-30.78Zm15.04,24.46c-2.07-6.66-7.69-11.14-15.04-11.14s-12.75,4.48-14.93,11.14h29.97Z"/>
        <path class="cls-1" d="M603.82,165.59l9.65-.92c3.67-.23,5.51-1.61,5.51-4.71,0-4.36-4.13-7.12-9.65-7.12-6.2,0-10.22,3.33-11.25,8.96l-15.39-3.45c1.61-10.22,11.37-18.26,26.53-18.26,14.36,0,25.26,7.35,25.26,22.97v37.44h-15.5v-14.7c-3.33,10.68-10.11,15.85-20.44,15.85-9.3,0-17.57-6.55-17.57-17,0-13.55,11.83-17.92,22.85-19.06Zm.23,23.77c8.15,0,14.93-6.54,14.93-13.67v-1.49c-1.03,.92-2.64,1.38-5.28,1.72l-9.99,1.15c-4.48,.57-7.24,2.87-7.24,6.32s2.87,5.97,7.58,5.97Z"/>
        <path class="cls-1" d="M647.46,115.52h15.5v84.98h-15.5V115.52Z"/>
        <path class="cls-1" d="M671.92,141.24h11.94v-17.46l15.5-4.82v22.28h15.39v13.67h-15.39v23.54c0,5.74,2.64,8.38,8.38,8.38h7v13.67h-7c-16.31,0-23.89-7.58-23.89-22.97v-22.62h-11.94v-13.67Z"/>
        <path class="cls-1" d="M747.95,200.5h-12.52l-18.14-59.26h16.77l15.16,55.12,16.65-55.12h15.73l-24.92,82.22h-15.73l7-22.97Z"/>
      </g>
    </g>
  </g>
</svg>