<?xml version="1.0" encoding="UTF-8"?>
<svg id="Layer_2" data-name="Layer 2" xmlns="http://www.w3.org/2000/svg" viewBox="0 0 569.26 268.44">
  <defs>
    <style>
      .cls-1 {
        fill: #053354;
      }
    </style>
  </defs>
  <g id="Layer_1-2" data-name="Layer 1">
    <g>
      <path class="cls-1" d="M357.33,265.95c-35.56-.34-101.27-.74-105.38-.8L173.56,108.04l-1.04-2.07v159.18H0c12.71,0,39.51-39.34,47.42-49.34,14.78-18.73,26.77-39.78,35.75-61.87,17.42-42.82,25.38-94.64,4.31-137.71-1.54-3.15-2.96-5.7-3.95-7.39,3.89-1.39,20.38-2.24,39.23-2.56,28.59-.47,93.56,.95,97.07,1.25,6.42,36.63,13.55,73.59,30.98,106.63,26.86,50.94,57.62,97.25,96.07,140.1,3.48,3.89,6.97,7.77,10.45,11.68Z"/>
      <path class="cls-1" d="M467.83,182.48c-23.88-26.35-50.11-35.28-84.94-25.3,15.27-4.37,34.67-32.26,40.65-45.97,9.54-21.88,7.74-47.08-.25-69.68C400-24.41,266,7.93,266,7.93c0,0,.95,16.95,.92,25.26-.04,11.48,.82,23.43,2.36,35.24,10.26,78.55,52.01,131.25,101.14,186.51,5.28,5.93,10.63,10.69,11.1,11,35.05,.59,182.32-.45,187.74,2.49-40.44-22.11-70.4-51.71-101.42-85.96Zm-120.06-72.66c-3.95-15.6-20.76-32.41-36.36-36.36,15.6-3.95,32.41-20.76,36.36-36.36,3.97,15.6,20.76,32.41,36.36,36.36-15.6,3.95-32.39,20.76-36.36,36.36Z"/>
    </g>
  </g>
</svg>